<svg width="15" height="9" viewBox="0 0 15 9" fill="none" xmlns="http://www.w3.org/2000/svg">
<path d="M4.5 8.5C3.97471 8.5 3.45457 8.39654 2.96927 8.19552C2.48396 7.9945 2.04301 7.69986 1.67157 7.32843C1.30014 6.95699 1.0055 6.51604 0.804482 6.03073C0.603463 5.54543 0.5 5.02529 0.5 4.5C0.5 3.97471 0.603463 3.45457 0.804482 2.96927C1.0055 2.48396 1.30014 2.04301 1.67157 1.67157C2.04301 1.30014 2.48396 1.0055 2.96927 0.804482C3.45457 0.603463 3.97471 0.5 4.5 0.5" stroke="black"/>
<rect x="5" width="1" height="9" fill="black"/>
<rect x="7" y="2" width="1" height="7" fill="#DB0000"/>
<circle cx="7.5" cy="0.5" r="0.5" fill="#DB0000"/>
<rect x="9" width="1" height="9" fill="#DB0000"/>
<rect x="10" y="0.342022" width="1" height="9" transform="rotate(-20 10 0.342022)" fill="#DB0000"/>
<rect x="10" y="4" width="2" height="1" fill="#DB0000"/>
</svg>
